<svg xmlns="http://www.w3.org/2000/svg" xmlns:xlink="http://www.w3.org/1999/xlink" xmlns:a="http://ns.adobe.com/AdobeSVGViewerExtensions/3.0/" version="1.1" x="0px" y="0px" viewBox="41.896 52.986 100 125" enable-background="new 41.896 52.986 100 100" xml:space="preserve"><path display="none" d="M113.642,13.058l7.333,5.436l-7.926,7.789v23.542h2.807V44.25h18.423v5.575h2.807V44.25h27.081v5.575h2.807  V44.25h4.428v5.575h2.808V28.951c1.799,3.815,2.114,13.066,0.948,27.753c1.522-0.771,2.906-2.056,4.111-3.854  c2.136-3.124,3.163-6.899,3.084-11.327c-0.06-4.408-1.226-8.184-3.459-11.327c-1.403-1.957-2.965-3.519-4.685-4.705h-35.324v-8.757  c-3.38-9.606-9.448-15.082-18.206-16.446c-9.586-1.186-16.604,1.285-21.091,7.433l-4.566,3.835l5.356,0.178l8.56,15.24l3.638-2.827  L113.642,13.058L113.642,13.058z M107.969,15.252c0.336,0.296,0.494,0.672,0.494,1.107s-0.158,0.811-0.494,1.107  c-0.316,0.296-0.713,0.455-1.167,0.455s-0.85-0.158-1.187-0.455c-0.315-0.296-0.474-0.672-0.474-1.107s0.158-0.811,0.474-1.107  c0.337-0.296,0.732-0.455,1.187-0.455C107.257,14.798,107.652,14.956,107.969,15.252L107.969,15.252z"/><path display="none" d="M101.109,133.756v-2.254c0.02,0,0.039,0,0.059,0h3.717c0.297,0,0.533-0.099,0.751-0.316  s0.316-0.475,0.316-0.771v-1.028c0-0.296-0.099-0.533-0.316-0.751s-0.454-0.316-0.751-0.316h-3.717c-0.02,0-0.039,0-0.059,0h-6.326  v3.262H93.32v-3.262h-3.399v3.262h-0.475c-1.443-3.637-4.171-5.673-8.184-6.088v1.305c3.222,0.435,5.476,2.035,6.78,4.783H77.507  v3.301h-6.108v16.071c0.06,0,0.099,0,0.139,0h7.847v10.832H34v21.071l16.091,18.166h7.61v-9.883h14.608v9.883h7.511l20.518-19.392  c0.316,0.316,0.613,0.613,0.91,0.87c-0.021,0.02-0.04,0.04-0.04,0.06l-4.429,4.171v9.448h7.888v-22.297h-3.558V164  c0.02,0,0.039,0,0.059,0h3.717c0.297,0,0.533-0.099,0.751-0.316c0.218-0.217,0.316-0.454,0.316-0.751v-1.028  c0-0.296-0.099-0.533-0.316-0.751c-0.218-0.217-0.454-0.316-0.751-0.316h-3.717c-0.02,0-0.039,0-0.059,0v-2.253  c0.02,0,0.039,0,0.059,0h3.717c0.297,0,0.533-0.099,0.751-0.316s0.316-0.455,0.316-0.751v-1.028c0-0.296-0.099-0.553-0.316-0.771  s-0.454-0.316-0.751-0.316h-3.717c-0.02,0-0.039,0-0.059,0v-2.233c0.02,0,0.039,0,0.059,0h3.717c0.297,0,0.533-0.1,0.751-0.316  c0.218-0.218,0.316-0.475,0.316-0.771v-1.027c0-0.297-0.099-0.534-0.316-0.751c-0.218-0.218-0.454-0.316-0.751-0.316h-3.717  c-0.02,0-0.039,0-0.059,0v-2.233c0.02,0,0.039,0,0.059,0h3.717c0.297,0,0.533-0.1,0.751-0.316c0.218-0.218,0.316-0.455,0.316-0.752  v-1.027c0-0.297-0.099-0.554-0.316-0.771c-0.218-0.217-0.454-0.315-0.751-0.315h-3.717c-0.02,0-0.039,0-0.059,0v-2.234  c0.02,0,0.039,0,0.059,0h3.717c0.297,0,0.533-0.099,0.751-0.316c0.218-0.217,0.316-0.454,0.316-0.751v-1.027  c0-0.297-0.099-0.534-0.316-0.751c-0.218-0.218-0.454-0.316-0.751-0.316h-3.717c-0.02,0-0.039,0-0.059,0v-2.234  c0.02,0,0.039,0,0.059,0h3.717c0.297,0,0.533-0.099,0.751-0.315c0.218-0.218,0.316-0.475,0.316-0.771v-1.027  c0-0.297-0.099-0.534-0.316-0.752c-0.218-0.217-0.454-0.315-0.751-0.315h-3.717C101.148,133.756,101.129,133.756,101.109,133.756  L101.109,133.756z M87.588,134.982c0.672,0.632,1.008,1.383,1.008,2.253s-0.336,1.621-1.008,2.233  c-0.672,0.613-1.482,0.93-2.431,0.93c-0.949,0-1.76-0.316-2.432-0.93c-0.652-0.612-0.988-1.363-0.988-2.233s0.336-1.621,0.988-2.253  c0.672-0.613,1.482-0.91,2.432-0.91C86.106,134.072,86.916,134.369,87.588,134.982L87.588,134.982z"/><path display="none" d="M85.908,137.294c0-0.396-0.119-0.731-0.375-1.028c-0.257-0.276-0.554-0.415-0.89-0.415  s-0.652,0.139-0.909,0.415c-0.237,0.297-0.356,0.633-0.356,1.028c0,0.415,0.119,0.751,0.356,1.008  c0.257,0.297,0.573,0.435,0.909,0.435s0.632-0.138,0.89-0.435C85.79,138.045,85.908,137.709,85.908,137.294L85.908,137.294z"/><path display="none" d="M64.5,147.632c0.277,0.336,0.573,0.652,0.909,0.949c1.364,1.226,2.925,1.977,4.724,2.253v-3.202H64.5  L64.5,147.632z"/><path display="none" d="M62.781,142.888c0,1.266,0.296,2.432,0.87,3.479h6.483v-11.445c-1.799,0.276-3.36,1.027-4.724,2.233  C63.65,138.737,62.781,140.655,62.781,142.888L62.781,142.888z M66.596,141.346c-0.296-0.296-0.435-0.652-0.435-1.067  s0.139-0.79,0.435-1.106c0.296-0.297,0.672-0.436,1.087-0.436c0.416,0,0.791,0.139,1.087,0.436c0.296,0.316,0.455,0.691,0.455,1.106  s-0.158,0.771-0.455,1.067c-0.296,0.297-0.672,0.455-1.087,0.455C67.268,141.801,66.892,141.643,66.596,141.346L66.596,141.346z"/><path display="none" d="M109.727,127.054c-0.178,0.139-0.336,0.277-0.494,0.415h6.404v3.815c8.046-1.562,13.402,1.087,16.031,7.907  l0.06-0.021c-0.02,0.021-0.02,0.04-0.039,0.06c-0.021,0.02-0.04,0.04-0.06,0.06c-0.87,0.929-1.424,1.996-1.66,3.202  c-0.1,0.475-0.158,0.969-0.158,1.482c0,1.878,0.632,3.479,1.917,4.804c0.455,0.494,0.969,0.89,1.502,1.206v6.306h3.183v-5.159h1.503  v5.159h3.202v-6.207h5.732v6.207h3.202l-0.04-6.464c0.771-2.551,1.957-4.448,3.559-5.713c0.02-0.02,0.02-0.02,0.039-0.04  c0.021,0.021,0.021,0.021,0.04,0.04c1.601,1.265,2.787,3.162,3.558,5.713l-0.039,6.464h3.024v-31.924l-17.118-15.873l-15.34,11.05  h4.369l8.321,15.655l3.895-3.341l0.811-10.239l1.423,9.863l-7.412,6.326c-0.415-0.198-0.83-0.356-1.246-0.455  c-0.494-0.118-1.008-0.178-1.541-0.178c-1.127,0-2.155,0.257-3.084,0.791c0.336-0.969,0.514-1.997,0.514-3.064  c0-3.063-1.384-5.673-4.131-7.848c-2.748-2.154-6.068-3.241-9.963-3.241S112.475,124.9,109.727,127.054L109.727,127.054z   M139.635,122.983c0.336,0.315,0.514,0.691,0.514,1.146c0,0.454-0.178,0.83-0.514,1.146s-0.752,0.474-1.226,0.474  c-0.475,0-0.89-0.157-1.226-0.474s-0.515-0.692-0.515-1.146c0-0.455,0.179-0.831,0.515-1.146c0.336-0.316,0.751-0.475,1.226-0.475  C138.883,122.508,139.299,122.667,139.635,122.983L139.635,122.983z"/><path display="none" d="M137.875,123.576c-0.139,0.139-0.197,0.316-0.197,0.514c0,0.198,0.059,0.356,0.197,0.494  c0.139,0.139,0.316,0.218,0.514,0.218c0.198,0,0.356-0.079,0.494-0.218c0.139-0.138,0.218-0.296,0.218-0.494  c0-0.197-0.079-0.375-0.218-0.514c-0.138-0.139-0.296-0.198-0.494-0.198C138.191,123.377,138.014,123.437,137.875,123.576  L137.875,123.576z"/><path display="none" d="M67.109,116.756v-2.254c0.02,0,0.039,0,0.059,0h3.717c0.297,0,0.533-0.099,0.751-0.316  s0.316-0.475,0.316-0.771v-1.028c0-0.296-0.099-0.533-0.316-0.751s-0.454-0.316-0.751-0.316h-3.717c-0.02,0-0.039,0-0.059,0h-6.326  v3.262H59.32v-3.262h-3.399v3.262h-0.475c-1.442-3.637-4.171-5.673-8.184-6.088v1.305c3.222,0.435,5.476,2.035,6.78,4.783H43.507  v3.301h-6.108v16.071c0.061,0,0.1,0,0.139,0h7.848v10.832H0v21.071l16.09,18.166h7.61v-9.883h14.608v9.883h7.512l20.518-19.392  c0.316,0.316,0.613,0.613,0.91,0.87c-0.021,0.02-0.04,0.04-0.04,0.06l-4.429,4.171v9.448h7.888v-22.297h-3.558V147  c0.02,0,0.039,0,0.059,0h3.717c0.297,0,0.533-0.099,0.751-0.316c0.218-0.217,0.316-0.454,0.316-0.751v-1.028  c0-0.296-0.099-0.533-0.316-0.751c-0.218-0.217-0.454-0.316-0.751-0.316h-3.717c-0.02,0-0.039,0-0.059,0v-2.253  c0.02,0,0.039,0,0.059,0h3.717c0.297,0,0.533-0.099,0.751-0.316s0.316-0.455,0.316-0.751v-1.028c0-0.296-0.099-0.553-0.316-0.771  s-0.454-0.316-0.751-0.316h-3.717c-0.02,0-0.039,0-0.059,0v-2.233c0.02,0,0.039,0,0.059,0h3.717c0.297,0,0.533-0.1,0.751-0.316  c0.218-0.218,0.316-0.475,0.316-0.771v-1.027c0-0.297-0.099-0.534-0.316-0.751c-0.218-0.218-0.454-0.316-0.751-0.316h-3.717  c-0.02,0-0.039,0-0.059,0v-2.233c0.02,0,0.039,0,0.059,0h3.717c0.297,0,0.533-0.1,0.751-0.316c0.218-0.218,0.316-0.455,0.316-0.752  v-1.027c0-0.297-0.099-0.554-0.316-0.771c-0.218-0.217-0.454-0.315-0.751-0.315h-3.717c-0.02,0-0.039,0-0.059,0v-2.234  c0.02,0,0.039,0,0.059,0h3.717c0.297,0,0.533-0.099,0.751-0.316c0.218-0.217,0.316-0.454,0.316-0.751v-1.027  c0-0.297-0.099-0.534-0.316-0.751c-0.218-0.218-0.454-0.316-0.751-0.316h-3.717c-0.02,0-0.039,0-0.059,0v-2.234  c0.02,0,0.039,0,0.059,0h3.717c0.297,0,0.533-0.099,0.751-0.315c0.218-0.218,0.316-0.475,0.316-0.771v-1.027  c0-0.297-0.099-0.534-0.316-0.752c-0.218-0.217-0.454-0.315-0.751-0.315h-3.717C67.148,116.756,67.129,116.756,67.109,116.756  L67.109,116.756z M53.588,117.982c0.672,0.632,1.009,1.383,1.009,2.253s-0.337,1.621-1.009,2.233  c-0.672,0.613-1.482,0.93-2.431,0.93c-0.949,0-1.76-0.316-2.432-0.93c-0.652-0.612-0.988-1.363-0.988-2.233s0.336-1.621,0.988-2.253  c0.672-0.613,1.482-0.91,2.432-0.91C52.105,117.072,52.916,117.369,53.588,117.982L53.588,117.982z"/><path display="none" d="M51.908,120.294c0-0.396-0.119-0.731-0.375-1.028c-0.258-0.276-0.555-0.415-0.891-0.415  s-0.652,0.139-0.908,0.415c-0.238,0.297-0.356,0.633-0.356,1.028c0,0.415,0.118,0.751,0.356,1.008  c0.256,0.297,0.572,0.435,0.908,0.435s0.633-0.138,0.891-0.435C51.789,121.045,51.908,120.709,51.908,120.294L51.908,120.294z"/><path d="M68.805,70.6l7.837,6.098l-8.231,7.512l-0.301,9.808l-1.948,2.945V96.94L55.82,112.499l11.848,7.604v22.468l9.182-35.012  l-1.74-1.809c0.511-0.44,0.975-0.835,1.415-1.206l4.985,5.193l17.297,4.847v6.935l3.107,6.954l-6.538,23.372l3.224-2.99  l10.642-18.086l-2.018-3.269c-0.14-0.209-0.185-0.441-0.115-0.696c0.068-0.255,0.208-0.44,0.417-0.58l9.784-5.773  c1.066-0.625,1.947-1.183,2.644-1.622c1.763,0.764,3.686,1.159,5.796,1.159c3.711,0,6.843-1.206,9.392-3.617  c2.549-2.389,3.778-5.287,3.709-8.672c-0.093-3.385-1.46-6.284-4.126-8.672c-2.644-2.365-5.798-3.57-9.461-3.593  c0.695,0.463,1.344,1.042,1.972,1.739c1.948,2.202,2.966,4.823,3.036,7.906c0.069,3.084-0.811,5.728-2.664,7.907  c-1.811,2.156-4.035,3.269-6.679,3.293c-0.022,0-0.07,0-0.117,0l0.095-0.047L98.182,83.886C98.69,69.58,92.339,60.189,79.1,55.737  c-10.063-2.527-18.99,0.092-26.804,7.86c-1.182,1.183-2.434,2.203-3.756,3.107c-0.858,0.58-1.738,1.113-2.643,1.577  c0.905,0.209,1.785,0.372,2.643,0.441c1.414,0.139,2.806,0.115,4.15-0.093l11.13,20.636l2.597-0.951l0.579-19.129L68.805,70.6  L68.805,70.6z M58.208,72.27c0.254-0.255,0.579-0.394,0.951-0.394c0.371,0,0.696,0.139,0.951,0.394  c0.254,0.255,0.394,0.58,0.394,0.951c0,0.371-0.14,0.695-0.394,0.95c-0.255,0.256-0.58,0.395-0.951,0.395  c-0.372,0-0.696-0.139-0.951-0.395c-0.255-0.255-0.394-0.58-0.394-0.95C57.814,72.849,57.953,72.524,58.208,72.27L58.208,72.27z   M119.026,118.388h-0.022v-0.025L119.026,118.388L119.026,118.388z M67.668,112.128l-2.829-2.065l2.829-3.223V112.128  L67.668,112.128z"/><path d="M114.993,123.743l-5.706,3.572l1.811,2.943c0.092,0.163,0.138,0.325,0.138,0.488c0,0.161-0.046,0.324-0.115,0.485  l-7.769,13.217l14.725-13.702L114.993,123.743L114.993,123.743z"/><!-- <text x="41.896" y="167.986" fill="#000000" font-size="5px" font-weight="bold" font-family="'Helvetica Neue', Helvetica, Arial-Unicode, Arial, Sans-serif">Created by N.K.Narasimhan</text><text x="41.896" y="172.986" fill="#000000" font-size="5px" font-weight="bold" font-family="'Helvetica Neue', Helvetica, Arial-Unicode, Arial, Sans-serif">from the Noun Project</text> --></svg>